<?xml version="1.0" encoding="UTF-8" standalone="no"?><svg xmlns:svg="http://www.w3.org/2000/svg" xmlns="http://www.w3.org/2000/svg" xmlns:xlink="http://www.w3.org/1999/xlink" viewBox="0 0 358.4 506.88" height="512" width="512"><defs><linearGradient id="e"><stop offset="0" stop-color="#fcbd4f"/><stop offset="1" stop-color="#f4f04f"/></linearGradient><linearGradient id="d"><stop offset="0" stop-color="#4ffc94"/><stop offset="1" stop-color="#56fc4f"/></linearGradient><linearGradient id="c"><stop offset="0" stop-color="#ff294b"/><stop offset="1" stop-color="#fc4f85"/></linearGradient><linearGradient id="b"><stop offset="0" stop-color="#fcbd4f"/><stop offset="1" stop-color="#f2fc4f"/></linearGradient><linearGradient id="a"><stop offset="0" stop-color="#2f5097"/><stop offset="1" stop-color="#3b71d4"/></linearGradient><linearGradient gradientTransform="translate(-4.5776367e-6)" gradientUnits="userSpaceOnUse" y2="547.32855" x2="204.94002" y1="55.157169" x1="204.94002" id="f" xlink:href="#a"/><linearGradient gradientUnits="userSpaceOnUse" y2="101.41618" x2="365.34695" y1="293.85928" x1="318.6106" id="g" xlink:href="#b"/><linearGradient gradientUnits="userSpaceOnUse" y2="175.25409" x2="265.8927" y1="361.07364" x1="259.83313" id="h" xlink:href="#c"/><linearGradient gradientUnits="userSpaceOnUse" y2="297.37405" x2="249.29395" y1="180.94408" x1="250.24948" id="i" xlink:href="#d"/><linearGradient gradientUnits="userSpaceOnUse" y2="153.77831" x2="193.508" y1="293.49426" x1="199.36194" id="j" xlink:href="#e"/></defs><g transform="translate(0,-43.56)"><rect ry="49.5" y="43.559998" x="-74.240005" height="506.88" width="506.88" fill="url(#f)" stroke-width="1.20621" stroke-linecap="round" stroke-linejoin="round"/><g transform="matrix(1.1278869,0,0,1.1278869,-32.320586,-30.203851)"><path d="m 192.06729,141.2424 c 19.46801,17.82092 33.56274,36.6409 42.68922,56.54094 9.36948,20.41306 13.5007,41.96018 12.85266,64.74936 -0.62103,21.0881 -5.37328,43.22925 -13.90572,66.45046 -8.42444,22.89719 -20.52107,46.87443 -35.96587,72.03974 h 7.31738 c 14.39175,-19.49501 33.85976,-49.41257 49.16956,-66.47745 5.13026,-5.88631 9.6665,-11.79962 13.60871,-17.68592 4.07721,-6.07532 7.50639,-12.15064 10.39554,-18.19895 2.94315,-6.21032 5.29227,-12.33964 7.04736,-18.41496 1.8361,-6.29132 3.05116,-12.50165 3.7262,-18.57696 1.48507,-13.3927 0.29701,-26.27237 -2.94316,-38.31499 -3.51018,-12.98768 -9.42349,-24.9763 -17.01088,-35.58786 -8.18143,-11.42159 -18.25295,-21.1961 -29.32353,-28.81049 -11.23258,-7.74941 -23.46422,-13.25769 -35.72285,-16.03884 -1.97111,-0.43202 -4.13122,-0.81004 -6.39934,-1.10705 -1.78209,-0.21602 -3.61818,-0.40503 -5.53528,-0.56703 z m -79.95116,204.88665 17.44291,23.49122 c -5.83231,-8.15442 -11.71861,-16.20084 -17.44291,-23.49122 z m 44.76833,89.23964 h 45.52436 c 1.08006,0 2.07911,0.43202 2.78115,1.16106 0.72904,0.72904 1.16106,1.70109 1.16106,2.78114 v 19.63002 c 0,1.08006 -0.43202,2.07911 -1.16106,2.78115 -0.70204,0.72903 -1.70109,1.16106 -2.78115,1.16106 h -45.52436 c -1.08006,0 -2.07911,-0.43203 -2.78115,-1.16106 -0.70203,-0.70204 -1.16106,-1.70109 -1.16106,-2.78115 v -19.63002 c 0,-1.08005 0.43202,-2.07911 1.16106,-2.78114 0.70204,-0.72904 1.67409,-1.16106 2.78115,-1.16106 z m 2.48413,-34.34579 c -16.41686,-26.8934 -28.7295,-52.11271 -36.96493,-75.81994 -8.34343,-24.05825 -12.50164,-46.55042 -12.44764,-67.69252 0.054,-22.43817 4.75224,-43.25625 14.12173,-62.72426 9.09948,-18.90098 22.57318,-36.4789 40.3941,-52.92275 -1.02605,0.13501 -2.0251,0.27001 -2.99715,0.43202 -1.56609,0.24301 -3.10517,0.54003 -4.56324,0.86405 -12.39365,2.72714 -25.11131,8.20842 -36.91092,16.01183 -11.31359,7.45239 -21.736123,17.03788 -30.214563,28.32447 -7.6414,10.20653 -13.68971,21.81714 -17.2809,34.5348 -3.29417,11.6646 -4.56324,24.27426 -3.10516,37.58595 0.64803,6.07532 1.8631,12.31264 3.69919,18.68497 1.75509,6.15632 4.10422,12.39365 7.07437,18.76598 2.88915,6.18332 6.34533,12.44764 10.44954,18.79297 3.96921,6.12932 8.53245,12.36665 13.770723,18.65797 l 0.29701,0.35102 49.11555,66.15344 z m 17.71292,-269.66302 c 0.45902,-0.16201 0.94505,-0.24301 1.45807,-0.24301 0.48603,0 0.99906,0.054 1.45808,0.18901 h 0.83704 c 4.64424,-0.0273 9.31549,0.16201 13.68971,0.56703 4.18522,0.37802 8.12743,0.94505 11.58361,1.72809 13.39269,3.02416 26.73139,9.01847 38.93602,17.4159 12.01563,8.26243 22.95119,18.84698 31.78065,31.18663 8.23543,11.5296 14.68877,24.57127 18.49596,38.72001 3.53719,13.09568 4.80625,27.16341 3.18617,41.77117 -0.72904,6.61534 -2.05211,13.3657 -4.05021,20.17005 -1.9171,6.58834 -4.42823,13.20369 -7.6144,19.90003 -3.02415,6.37233 -6.66934,12.77167 -10.98957,19.225 -4.15821,6.23733 -8.93746,12.47465 -14.33774,18.71198 l -50.24962,67.96253 c -0.21601,0.29701 -0.45902,0.54003 -0.70203,0.78304 -0.16201,0.13501 -0.32402,0.27001 -0.51303,0.37802 v 14.71576 c 0,0.89105 -0.35102,1.70109 -0.94505,2.26812 -0.59403,0.59403 -1.40407,0.94505 -2.26812,0.94505 h -55.29887 c -0.89105,0 -1.70109,-0.35102 -2.26812,-0.94505 -0.59403,-0.59403 -0.94505,-1.40407 -0.94505,-2.26812 v -15.01278 c -0.16201,-0.135 -0.29701,-0.27001 -0.43202,-0.40502 -0.21601,-0.24301 -0.40502,-0.48602 -0.59403,-0.75604 L 96.995347,340.62076 c -5.48128,-6.61534 -10.28753,-13.14968 -14.47275,-19.65702 -4.32022,-6.69635 -7.99241,-13.33869 -11.04357,-19.87303 -3.21317,-6.85836 -5.7243,-13.63571 -7.6414,-20.25106 -1.9711,-6.88535 -3.29417,-13.63571 -3.99621,-20.22405 -1.56608,-14.58076 -0.21601,-28.37847 3.40218,-41.15014 3.9422,-13.90572 10.53055,-26.59638 18.87398,-37.74796 9.15348,-12.20463 20.467063,-22.57317 32.698693,-30.64659 12.77166,-8.42444 26.56938,-14.36475 40.01608,-17.3349 3.10516,-0.67504 6.61534,-1.24207 10.36854,-1.64709 3.7802,-0.35102 7.7764,-0.59403 11.88062,-0.72904 z m -6.48034,269.66302 h 2.80815 V 146.66968 c -17.71292,15.90383 -31.10562,32.83371 -40.09709,51.03265 -9.18048,18.57697 -13.79772,38.45 -13.85172,59.80811 -0.0273,20.73708 4.21222,42.98624 12.74466,66.88248 8.53245,23.84224 21.33111,49.33156 38.396,76.62998 z m 12.39364,0 h 3.48319 c 16.09283,-25.62433 28.67549,-49.89859 37.36994,-72.98479 8.74845,-23.14021 13.60871,-45.03834 14.20274,-65.77542 0.62103,-21.76313 -3.45618,-42.3652 -12.66366,-61.86022 -9.04547,-19.14399 -23.0592,-37.26194 -42.39221,-54.48883 z" stroke-width="2.70014"/><path d="m 275.34533,360.70471 c 0,-0.15615 1.78162,-3.28131 3.95916,-6.9448 27.54979,-46.34981 42.48122,-87.09678 45.5648,-124.34366 1.21183,-14.6378 -0.10213,-32.92135 -3.35753,-46.71956 -6.02634,-25.543 -18.47431,-48.25133 -38.71382,-70.62405 -3.12666,-3.45622 -7.36533,-7.82007 -9.41927,-9.69746 l -3.73442,-3.413436 2.47173,0.247172 c 21.15407,2.115394 46.30048,15.341324 63.31461,33.300764 23.63978,24.9532 34.7896,56.40803 31.13528,87.83591 -2.98901,25.70601 -14.15145,49.05276 -35.24687,73.72042 -9.66593,11.30272 -15.04762,18.4711 -33.78895,45.00666 -6.45318,9.13696 -12.6145,17.80589 -13.69182,19.2643 l -1.95877,2.65165 h -3.26707 c -1.79688,0 -3.26706,-0.12776 -3.26706,-0.28391 z" transform="matrix(0.99,0,0,0.99,-74.24,43.56)" fill="url(#g)" stroke-width=".505076" stroke-linecap="round" stroke-linejoin="round"/><path d="M 260.19304,232.6568 V 104.32499 l 1.89404,1.52234 c 2.58288,2.07602 12.82645,12.55779 17.10513,17.5029 19.56999,22.61813 31.1354,47.64948 35.12125,76.01398 0.99141,7.05516 0.84389,28.27608 -0.25456,36.61803 -4.72985,35.92 -20.48509,75.56329 -47.42243,119.32427 -3.16447,5.14083 -3.63797,5.68211 -4.97054,5.68211 h -1.47289 z" transform="matrix(0.99,0,0,0.99,-74.24,43.56)" fill="url(#h)" stroke-width=".505076" stroke-linecap="round" stroke-linejoin="round"/><path d="m 242.05846,351.94506 c -26.54887,-44.41739 -40.82192,-81.66304 -45.14608,-117.80905 -1.13375,-9.47711 -1.1295,-26.53825 0.009,-35.1028 2.91539,-21.93621 9.93054,-40.55683 22.2631,-59.09392 2.58738,-3.88909 6.71381,-9.5712 9.16985,-12.62691 4.48436,-5.57927 18.80343,-20.62344 20.48703,-21.52448 0.86272,-0.46171 0.9004,4.86734 0.9004,127.32019 v 127.80207 h -1.16224 c -0.96803,0 -2.05768,-1.49811 -6.52081,-8.9651 z" transform="matrix(0.99,0,0,0.99,-74.24,43.56)" fill="url(#i)" stroke-width=".505076" stroke-linecap="round" stroke-linejoin="round"/><path d="m 226.86894,355.98567 c -2.04412,-2.70848 -13.23394,-17.76606 -24.86628,-33.46131 -11.63233,-15.69524 -22.71287,-30.46872 -24.62342,-32.82996 -12.91115,-15.95675 -23.71695,-36.24704 -28.40221,-53.33142 -4.81863,-17.5707 -5.50514,-32.65993 -2.22413,-48.88572 7.71116,-38.13454 40.00683,-72.49881 79.63888,-84.73991 3.43496,-1.06095 11.5057,-2.922876 12.7468,-2.940697 0.41871,-0.006 -2.08142,2.901967 -5.55583,6.462187 -27.7868,28.47295 -42.3614,57.3848 -46.768,92.77437 -1.1054,8.87748 -1.09119,26.45568 0.029,35.86042 3.3271,27.93369 11.47492,54.07384 26.76325,85.86297 5.30665,11.03415 16.47562,31.42107 21.37552,39.01714 0.72605,1.12556 0.70854,1.13642 -1.83196,1.13642 h -2.56501 z" transform="matrix(0.99,0,0,0.99,-74.24,43.56)" fill="url(#j)" stroke-width=".505076" stroke-linecap="round" stroke-linejoin="round"/></g></g></svg>